# xmcd
#
# Track frame offsets: 
#        150
#        11812
#        23467
#        31367
#        41597
#        51147
#        61770
#        72560
#        82704
#        92717
#        104767
#        115827
#        126922
#        137172
#
# Disc length: 1980 seconds
#
# Revision: 0
# Processed by: cddbd v1.5.2PL0 Copyright (c) Steve Scherf et al.
# Submitted via: ExactAudioCopy v0.99pb4
#
DISCID=b807ba0e
DTITLE=Paul Yandell - Going Home
DYEAR=1995
DGENRE=Instrumental
TTITLE0=Going Home
TTITLE1=Munich Memories
TTITLE2=Lazy
TTITLE3=Within My Heart
TTITLE4=Relaxin'
TTITLE5=Laying Back
TTITLE6=Chet-Lite
TTITLE7=Trickey
TTITLE8=Odie And Me
TTITLE9=Kentucky Lullaby
TTITLE10=Clear Spring Blues
TTITLE11=Eight More Miles To Louisville
TTITLE12=Sweet Allalee
TTITLE13=Rhythm Guitar
EXTD=
EXTT0=
EXTT1=
EXTT2=
EXTT3=
EXTT4=
EXTT5=
EXTT6=
EXTT7=
EXTT8=
EXTT9=
EXTT10=
EXTT11=
EXTT12=
EXTT13=
PLAYORDER=
